<svg width="123" height="33" viewBox="0 0 123 33" fill="none" xmlns="http://www.w3.org/2000/svg">
<path d="M2.14118 21.8262L10.9454 13.3863C15.4061 8.31844 15.6842 4.22217 12.9725 2.67029e-05L4.55256 8.07773C-1.59737 14.1062 -0.515321 18.2091 2.14118 21.8262Z" fill="#D35027"/>
<path d="M25.5109 32.5317V20.5432C24.9456 13.934 22.225 10.9485 17.3868 10.0033L17.3957 21.4707C17.4928 29.9326 21.1408 31.9532 25.5109 32.5295V32.5317Z" fill="#D35027"/>
<path d="M12.8777 32.779L4.07342 24.3392C-0.778069 19.1012 -1.08947 15.1132 2.04622 10.9529L10.4663 19.0306C16.6162 25.0569 15.5342 29.1598 12.8777 32.7768V32.779Z" fill="#004A55"/>
<path d="M21.101 9.24811C19.0496 9.24811 17.3847 7.58311 17.3847 5.53166C17.3847 3.48021 19.0496 1.81298 21.101 1.81298C23.1525 1.81298 24.8175 3.47579 24.8175 5.52945C24.8175 7.58311 23.1547 9.24811 21.101 9.2459V9.24811Z" fill="#004A55"/>
<path d="M41.366 14.8173V14.6296C41.366 14.4308 41.366 14.252 41.3571 14.0908C41.3527 13.9296 41.3329 13.7949 41.3019 13.6911C41.2909 13.627 41.2093 13.5807 41.0591 13.5431C40.909 13.5056 40.7521 13.4791 40.5887 13.4636C40.4275 13.4482 40.3149 13.4393 40.253 13.4393C40.2221 13.3974 40.2022 13.3245 40.1978 13.2207C40.1934 13.1169 40.2111 13.0441 40.253 13.0021C40.5644 13.0131 40.8692 13.0286 41.1607 13.0485C41.4544 13.0706 41.7436 13.0794 42.0373 13.0794C42.331 13.0794 42.6226 13.0683 42.8898 13.0485C43.157 13.0286 43.444 13.0109 43.7575 13.0021C43.7995 13.0441 43.8171 13.1169 43.8127 13.2207C43.8083 13.3245 43.7884 13.3974 43.7575 13.4393C43.6935 13.4393 43.5853 13.4482 43.4307 13.4636C43.2739 13.4791 43.1282 13.5056 42.9935 13.5431C42.8588 13.5807 42.7793 13.6292 42.7594 13.6911C42.7174 13.8147 42.6932 13.9781 42.6888 14.1769C42.6844 14.3756 42.6799 14.5898 42.6799 14.8195V15.8993C42.6799 16.0649 42.7064 16.193 42.7594 16.2747C42.8124 16.3564 42.8389 16.4403 42.8389 16.5264C42.8389 16.5684 42.8234 16.6059 42.7925 16.6346C42.7616 16.6633 42.6778 16.7186 42.5408 16.7914C42.3222 16.9063 42.0682 17.0255 41.7834 17.1514C41.4963 17.275 41.1363 17.381 40.7035 17.4627C40.2707 17.5466 39.7164 17.5864 39.0385 17.5864C38.2877 17.5864 37.5988 17.4539 36.9739 17.1867C36.349 16.9195 35.8101 16.5552 35.3552 16.0914C34.9003 15.6277 34.5514 15.0955 34.3063 14.4971C34.0612 13.8987 33.9397 13.2583 33.9397 12.5803C33.9397 11.8626 34.0656 11.1869 34.3217 10.5554C34.5779 9.92384 34.9335 9.36516 35.3928 8.87272C35.8521 8.38249 36.3953 7.99824 37.0268 7.72442C37.6584 7.44839 38.3474 7.30927 39.1004 7.30927C39.6017 7.30927 40.125 7.33136 40.6704 7.37332C41.2181 7.41528 41.7745 7.49698 42.3354 7.62506C42.4083 8.05346 42.4657 8.40898 42.5076 8.69605C42.5496 8.98312 42.5894 9.2437 42.6247 9.47777C42.6623 9.71185 42.6799 9.85097 42.6799 9.89292C42.691 9.93488 42.6578 9.97682 42.5849 10.0166C42.5121 10.0585 42.4348 10.0806 42.3509 10.0806C42.278 10.0806 42.2162 10.0651 42.1632 10.0342C42.1412 9.92161 42.0925 9.74055 42.0152 9.50427C41.9357 9.26357 41.7967 9.01404 41.5935 8.75347C41.3903 8.49289 41.0944 8.26986 40.7102 8.08879C40.3238 7.90771 39.8137 7.81497 39.1777 7.81497C38.6146 7.81497 38.1023 7.94083 37.6452 8.19699C37.1859 8.45314 36.7928 8.79764 36.4659 9.22824C36.1391 9.66106 35.8874 10.1402 35.7152 10.668C35.5429 11.1936 35.4568 11.7235 35.4568 12.2557C35.4568 12.8497 35.5385 13.4327 35.6997 14.0069C35.8609 14.5788 36.106 15.0999 36.4328 15.5614C36.7597 16.0252 37.1726 16.3962 37.6695 16.6722C38.1663 16.9504 38.7471 17.0873 39.4118 17.0873C39.8071 17.0873 40.1581 17.0321 40.4673 16.9239C40.7742 16.8157 41.0436 16.7031 41.2733 16.5883C41.3263 16.5684 41.355 16.5375 41.3594 16.5021C41.3638 16.4646 41.3683 16.4205 41.3683 16.3697V14.8173H41.366Z" fill="#004A55"/>
<path d="M46.3081 7.45281C46.6106 7.45281 46.9043 7.44398 47.1913 7.42853C47.4784 7.41307 47.7764 7.39981 48.0922 7.38877C48.1342 7.43072 48.1518 7.50359 48.1474 7.60738C48.143 7.71117 48.1231 7.78403 48.0922 7.82599C48.0282 7.82599 47.9156 7.83485 47.75 7.85031C47.5844 7.86576 47.4276 7.89004 47.2797 7.92096C47.1339 7.95187 47.05 8.00045 47.0279 8.06008C46.997 8.16386 46.9771 8.30077 46.9727 8.46638C46.9683 8.632 46.9638 8.81528 46.9638 9.01402V15.9104C46.9638 16.1091 46.9638 16.288 46.9727 16.4492C46.9771 16.6104 46.997 16.7451 47.0279 16.8489C47.05 16.9019 47.1317 16.9482 47.2797 16.988C47.4254 17.0299 47.5822 17.0586 47.75 17.0741C47.9156 17.0895 48.0326 17.0984 48.0922 17.0984C48.1231 17.1403 48.143 17.2132 48.1474 17.317C48.1518 17.4208 48.1342 17.4937 48.0922 17.5356C47.7809 17.5135 47.4806 17.4959 47.1913 17.4804C46.9043 17.465 46.6106 17.4561 46.3081 17.4561C46.0055 17.4561 45.7184 17.465 45.4159 17.4804C45.1134 17.4959 44.8064 17.5135 44.495 17.5356C44.453 17.4937 44.4332 17.423 44.4398 17.317C44.4442 17.2132 44.4641 17.1403 44.495 17.0984C44.559 17.0984 44.6717 17.0895 44.8373 17.0741C45.003 17.0586 45.162 17.0299 45.3143 16.988C45.4645 16.946 45.5461 16.8996 45.5572 16.8489C45.5991 16.7252 45.6235 16.5618 45.6279 16.363C45.6323 16.1643 45.6367 15.9523 45.6367 15.7204V9.19953C45.6367 8.96988 45.6367 8.75346 45.6279 8.5503C45.6235 8.34714 45.5991 8.18374 45.5572 8.05787C45.5461 7.99383 45.4645 7.94966 45.3143 7.91875C45.1642 7.88783 45.0052 7.86355 44.8373 7.84809C44.6717 7.83264 44.5546 7.82381 44.495 7.82381C44.4641 7.78185 44.4442 7.70895 44.4398 7.60517C44.4354 7.50138 44.453 7.42851 44.495 7.38655C44.8064 7.3976 45.1156 7.41086 45.4159 7.42631C45.7184 7.44177 46.0144 7.4506 46.3081 7.4506V7.45281Z" fill="#004A55"/>
<path d="M60.4429 10.1733C60.4429 10.7894 60.3038 11.3283 60.0211 11.792C59.7385 12.2557 59.3455 12.6157 58.8398 12.8718C58.3341 13.128 57.7466 13.2538 57.0819 13.2538C56.998 13.2538 56.8898 13.2428 56.7551 13.2229C56.6204 13.2031 56.51 13.1699 56.4283 13.128C56.4062 13.1081 56.3644 13.0684 56.3047 13.0109C56.2407 12.9535 56.2097 12.8784 56.2097 12.7835C56.2097 12.7195 56.2362 12.693 56.2892 12.704C56.3731 12.7261 56.4614 12.7482 56.5564 12.7746C56.6514 12.8011 56.7552 12.8144 56.8678 12.8144C57.4839 12.8144 57.9984 12.609 58.4157 12.1961C58.8331 11.7854 59.0407 11.198 59.0407 10.4383C59.0407 9.67872 58.8309 9.06703 58.4157 8.60771C57.9984 8.1484 57.3668 7.91875 56.5233 7.91875C56.4283 7.91875 56.2848 7.92539 56.0927 7.93422C55.9005 7.94526 55.7879 7.9872 55.757 8.05787C55.715 8.15282 55.6908 8.31182 55.6864 8.53485C55.682 8.76009 55.6775 8.98532 55.6775 9.21498V15.7204C55.6775 15.9501 55.6775 16.1643 55.6864 16.363C55.6908 16.5618 55.715 16.723 55.757 16.8489C55.7791 16.9019 55.8608 16.9482 56.0088 16.988C56.1545 17.0299 56.3092 17.0586 56.4704 17.0741C56.6316 17.0895 56.7441 17.0984 56.8059 17.0984C56.8368 17.1403 56.8567 17.2132 56.8611 17.317C56.8655 17.4208 56.8479 17.4937 56.8059 17.5356C56.4945 17.5135 56.1943 17.4959 55.905 17.4804C55.618 17.465 55.3243 17.4561 55.0217 17.4561C54.7192 17.4561 54.4366 17.465 54.1385 17.4804C53.8403 17.4959 53.5356 17.5135 53.2242 17.5356C53.1823 17.4937 53.1624 17.423 53.169 17.317C53.1734 17.2132 53.1933 17.1403 53.2242 17.0984C53.2883 17.0984 53.3987 17.0895 53.5599 17.0741C53.7211 17.0586 53.8778 17.0299 54.0302 16.988C54.1826 16.946 54.2621 16.8996 54.2731 16.8489C54.3151 16.7252 54.3393 16.5618 54.3437 16.363C54.3482 16.1643 54.3526 15.9523 54.3526 15.7204V9.19953C54.3526 8.96988 54.3526 8.75346 54.3437 8.5503C54.3393 8.34714 54.3151 8.18374 54.2731 8.05787C54.2621 7.99383 54.1804 7.94966 54.0302 7.91875C53.88 7.88783 53.7233 7.86355 53.5599 7.84809C53.3987 7.83264 53.286 7.82381 53.2242 7.82381C53.1933 7.78185 53.1734 7.70895 53.169 7.60517C53.1646 7.50138 53.1823 7.42851 53.2242 7.38655C53.5356 7.3976 53.8425 7.41086 54.1385 7.42631C54.4366 7.44177 54.7303 7.4506 55.0217 7.4506C55.3132 7.4506 55.6489 7.4462 55.9978 7.43516C56.3467 7.42412 56.7441 7.41968 57.1946 7.41968C57.7356 7.41968 58.2568 7.52569 58.7492 7.73989C59.2461 7.95409 59.6524 8.26324 59.9682 8.66955C60.2862 9.07587 60.4452 9.57715 60.4452 10.1712L60.4429 10.1733Z" fill="#004A55"/>
<path d="M64.2433 9.2194L62.8522 12.9425C62.8632 12.9844 62.872 13.0065 62.883 13.0065C63.0818 13.0176 63.3181 13.0242 63.5941 13.0308C63.8701 13.0352 64.0931 13.0397 64.2587 13.0397C64.4994 13.0397 64.7159 13.0352 64.9081 13.0242C65.1002 13.0131 65.3121 13.0043 65.5417 12.9933C65.5638 12.9933 65.5793 12.9668 65.5881 12.9138L64.2433 9.22382V9.2194ZM61.2556 15.3649C61.4544 14.8548 61.6354 14.38 61.8033 13.9428C61.9689 13.5056 62.1588 13.0198 62.373 12.481C62.5872 11.9444 62.8036 11.3901 63.0222 10.8226C63.2408 10.2551 63.4527 9.70962 63.6559 9.18848C63.8591 8.66734 64.038 8.20803 64.1948 7.81275C64.2368 7.72884 64.3272 7.63609 64.4686 7.53009C64.6077 7.42631 64.7159 7.37332 64.7888 7.37332C64.8087 7.37332 64.8219 7.37333 64.8285 7.38216C64.8329 7.38658 64.8462 7.39541 64.8683 7.40645L67.9819 15.5703C68.2116 16.1753 68.3418 16.5088 68.3728 16.5706C68.4258 16.6854 68.5251 16.7848 68.6775 16.8687C68.8276 16.9526 68.98 17.0122 69.1324 17.0476C69.2825 17.0851 69.3797 17.1028 69.4217 17.1028C69.4636 17.1558 69.4791 17.2353 69.468 17.3457C69.457 17.4539 69.4459 17.5202 69.4371 17.54C69.1346 17.518 68.8629 17.5003 68.6244 17.4848C68.3837 17.4694 68.0989 17.4605 67.7632 17.4605C67.4099 17.4605 67.114 17.4694 66.8799 17.4848C66.6459 17.5003 66.3522 17.518 65.9966 17.54C65.9547 17.4981 65.9348 17.4274 65.9414 17.3214C65.9459 17.2176 65.9702 17.1447 66.0122 17.1028C66.1071 17.1028 66.2529 17.0851 66.4494 17.0476C66.6481 17.01 66.7828 16.9615 66.8557 16.8996C66.8976 16.8577 66.9197 16.787 66.9197 16.681C66.9197 16.5861 66.8844 16.4271 66.8182 16.204C66.7497 15.9788 66.6658 15.7271 66.5598 15.4466C66.456 15.164 66.35 14.8923 66.2484 14.6251C66.1446 14.358 66.0232 14.0554 65.8885 13.7109C65.8465 13.669 65.8156 13.6469 65.7935 13.6469C65.6367 13.6359 65.4446 13.6314 65.2149 13.6314H64.2764C63.9651 13.6314 63.6979 13.6315 63.4793 13.6403C63.2607 13.6447 62.978 13.6579 62.6335 13.68C62.6225 13.68 62.596 13.6955 62.554 13.7264C62.3973 14.1438 62.2647 14.4949 62.1543 14.7819C62.0461 15.069 61.949 15.3362 61.865 15.5879C61.7701 15.8485 61.7127 16.0693 61.6862 16.246C61.6597 16.4226 61.6465 16.564 61.6465 16.6678C61.6465 16.7826 61.7281 16.8731 61.8893 16.9416C62.0505 17.01 62.2161 17.052 62.3906 17.0741C62.5628 17.0962 62.6711 17.105 62.7108 17.105C62.7329 17.1271 62.7483 17.1911 62.7572 17.3015C62.7682 17.4097 62.7616 17.4914 62.7418 17.5444C62.543 17.5334 62.3751 17.5224 62.2338 17.5135C62.0947 17.5025 61.9512 17.4937 61.8121 17.4826C61.673 17.4716 61.4874 17.4671 61.2578 17.4671C61.0281 17.4671 60.836 17.4738 60.6792 17.4826C60.5224 17.4937 60.3679 17.5025 60.2089 17.5135C60.0521 17.5246 59.8556 17.5356 59.6149 17.5444C59.5928 17.5223 59.5839 17.4583 59.5839 17.3501C59.5839 17.2419 59.595 17.1602 59.6149 17.1072C59.7098 17.1072 59.8689 17.0829 60.0919 17.0365C60.3171 16.9902 60.4651 16.9151 60.5379 16.8091C60.6947 16.6104 60.8272 16.3895 60.9377 16.1444C61.0459 15.8993 61.154 15.6409 61.2578 15.3715V15.3671L61.2556 15.3649Z" fill="#004A55"/>
<path d="M75.3154 10.2065C75.3154 9.53959 75.1366 8.99196 74.7766 8.56356C74.4167 8.13516 73.816 7.92096 72.9703 7.92096C72.8753 7.92096 72.7317 7.92757 72.5396 7.9364C72.3475 7.94744 72.235 7.98941 72.2041 8.06008C72.1621 8.15503 72.1377 8.31403 72.1333 8.53706C72.1289 8.7623 72.1245 8.98753 72.1245 9.21719L72.14 12.4059H72.9526C73.3479 12.4059 73.7254 12.3131 74.0854 12.132C74.4453 11.951 74.739 11.6948 74.9687 11.3658C75.1983 11.039 75.311 10.6503 75.311 10.2021L75.3154 10.2065ZM73.6416 7.41968C73.9838 7.41968 74.3415 7.4771 74.7059 7.59193C75.0703 7.70676 75.4082 7.87459 75.7151 8.09321C76.0221 8.31182 76.2694 8.58564 76.4571 8.91466C76.6448 9.24148 76.7397 9.6257 76.7397 10.0629C76.7397 10.4273 76.6381 10.7806 76.435 11.1273C76.2318 11.474 75.9712 11.7743 75.6532 12.0349C75.3353 12.2955 75.004 12.4832 74.6595 12.598C74.9311 13.0463 75.1895 13.4592 75.4413 13.8346C75.693 14.21 75.9514 14.5832 76.223 14.952C76.4946 15.3207 76.7949 15.7315 77.1305 16.1798C77.3492 16.4735 77.5877 16.6899 77.8416 16.8378C78.0978 16.9835 78.4334 17.0719 78.8508 17.105C78.8927 17.1469 78.9038 17.2242 78.8817 17.3391C78.8596 17.4539 78.8442 17.5201 78.8353 17.5422C78.3252 17.5422 77.9013 17.5246 77.5612 17.487C77.2211 17.4495 76.976 17.4053 76.8192 17.3545C76.7155 17.3126 76.5675 17.2485 76.382 17.1602C76.1943 17.0697 76.0133 16.9129 75.8344 16.6832C75.7703 16.5993 75.6577 16.4381 75.4899 16.1974C75.3243 15.9567 75.1255 15.6674 74.8959 15.3207C74.6662 14.9785 74.421 14.6097 74.1627 14.2166C73.9021 13.8258 73.6526 13.4438 73.4119 13.0684C73.328 12.9447 73.1712 12.8806 72.9416 12.8806H72.1444V15.9148C72.1444 16.1135 72.1443 16.2924 72.1532 16.4536C72.1576 16.6148 72.1775 16.7495 72.2084 16.8533C72.2305 16.9062 72.3122 16.9526 72.4601 16.9924C72.6081 17.0321 72.7626 17.063 72.9305 17.0785C73.0961 17.094 73.2132 17.1028 73.2728 17.1028C73.3037 17.1447 73.3236 17.2176 73.328 17.3214C73.3324 17.4252 73.3148 17.4981 73.2728 17.54C72.9615 17.518 72.6611 17.5003 72.3718 17.4848C72.0848 17.4694 71.7911 17.4605 71.4885 17.4605C71.186 17.4605 70.8989 17.4694 70.5964 17.4848C70.2939 17.5003 69.987 17.518 69.6756 17.54C69.6336 17.4981 69.6138 17.4274 69.6204 17.3214C69.6248 17.2176 69.6447 17.1447 69.6756 17.1028C69.7396 17.1028 69.8522 17.094 70.0178 17.0785C70.1834 17.063 70.3425 17.0343 70.4948 16.9924C70.6472 16.9504 70.7267 16.904 70.7378 16.8533C70.7797 16.7296 70.804 16.5662 70.8084 16.3674C70.8128 16.1687 70.8172 15.9567 70.8172 15.7248L70.8018 9.20395C70.8018 8.9743 70.8018 8.75788 70.793 8.55472C70.7886 8.35156 70.7642 8.18816 70.7222 8.06229C70.7112 7.99825 70.6296 7.95408 70.4794 7.92317C70.3293 7.89225 70.1724 7.86797 70.009 7.85252C69.8478 7.83706 69.7352 7.8282 69.6733 7.8282C69.6424 7.78625 69.6225 7.71338 69.6181 7.60959C69.6137 7.5058 69.6314 7.43293 69.6733 7.39098C69.9847 7.40202 70.2917 7.41528 70.5876 7.43074C70.8857 7.44619 71.1794 7.45502 71.4709 7.45502C71.7623 7.45502 72.098 7.45059 72.4469 7.43955C72.7958 7.42851 73.1932 7.4241 73.6437 7.4241V7.41526L73.6416 7.41968Z" fill="#004A55"/>
<path d="M85.4777 7.39097C85.6014 7.39097 85.7647 7.36448 85.9635 7.31148C86.1622 7.25848 86.308 7.21211 86.4007 7.17236C86.4846 7.13041 86.5399 7.10831 86.573 7.10831C86.6061 7.10831 86.6414 7.11936 86.6811 7.13923C86.7341 7.60959 86.7916 8.06007 86.86 8.49951C86.9285 8.93674 87.0036 9.36072 87.0875 9.76704C87.0655 9.78912 87.0301 9.81341 86.9793 9.84653C86.9263 9.87744 86.8644 9.88849 86.7916 9.87745C86.6767 9.87745 86.6039 9.85095 86.573 9.79795C86.4692 9.26798 86.2947 8.82412 86.0585 8.4708C85.8178 8.11749 85.5064 7.94082 85.12 7.94082H83.1812V15.7293C83.1812 15.9589 83.1812 16.1731 83.19 16.3719C83.1944 16.5706 83.2187 16.7318 83.2606 16.8577C83.2827 16.9107 83.3645 16.957 83.5124 16.9968C83.6582 17.0387 83.8127 17.0675 83.9739 17.0829C84.1351 17.0984 84.2477 17.1072 84.3096 17.1072C84.3405 17.1492 84.3603 17.222 84.3648 17.3258C84.3692 17.4296 84.3515 17.5025 84.3096 17.5444C83.9982 17.5223 83.6979 17.5047 83.4086 17.4892C83.1215 17.4738 82.8278 17.4649 82.5253 17.4649C82.2228 17.4649 81.9357 17.4738 81.6332 17.4892C81.3306 17.5047 81.0237 17.5223 80.7123 17.5444C80.6704 17.5025 80.6527 17.4318 80.6571 17.3258C80.6615 17.222 80.6814 17.1492 80.7123 17.1072C80.7764 17.1072 80.889 17.0984 81.0568 17.0829C81.2225 17.0675 81.3815 17.0387 81.5338 16.9968C81.684 16.9548 81.7656 16.9085 81.7767 16.8577C81.8186 16.734 81.843 16.5706 81.8474 16.3719C81.8518 16.1731 81.8562 15.9611 81.8562 15.7293V7.94082H79.8864C79.5 7.94082 79.1864 8.11749 78.9479 8.4708C78.7072 8.82412 78.5306 9.26798 78.418 9.79795C78.387 9.85095 78.3142 9.87745 78.1994 9.87745C78.1265 9.88849 78.0669 9.87744 78.0205 9.84653C77.9741 9.81561 77.9388 9.78912 77.9189 9.76704C78.0029 9.36072 78.0757 8.93895 78.1375 8.49951C78.2015 8.06228 78.2568 7.60738 78.3098 7.13923C78.3628 7.11936 78.4224 7.11496 78.4975 7.13042C78.5704 7.14588 78.6278 7.16575 78.6697 7.18562C78.7647 7.22758 78.8972 7.27174 79.0694 7.31811C79.2417 7.36449 79.3896 7.38876 79.5155 7.38876H85.4887H85.4843L85.4777 7.39097Z" fill="#004A55"/>
<path d="M89.0771 7.40424H89.7507C89.9693 7.40424 90.1304 7.39981 90.2364 7.38877C90.3932 7.62946 90.6427 7.96734 90.9872 8.40457C91.3295 8.8418 91.7314 9.33863 92.1907 9.89953C92.65 10.456 93.1226 11.0324 93.6128 11.6264C94.103 12.2204 94.5756 12.8078 95.0349 13.3841C95.4942 13.9627 95.8894 14.4882 96.2229 14.9542V9.16861C96.2229 8.897 96.2185 8.6828 96.2075 8.52601C96.1964 8.36923 96.1501 8.22789 96.0684 8.10423C96.0375 8.05123 95.9447 8.00267 95.7857 7.9563C95.6289 7.90772 95.4655 7.87239 95.2932 7.8481C95.121 7.8216 94.9929 7.80834 94.9112 7.80834C94.8693 7.75534 94.8494 7.68246 94.856 7.58088C94.8604 7.48151 94.8693 7.41086 94.8804 7.3689C95.1829 7.37994 95.4655 7.3932 95.7327 7.40866C95.9999 7.42412 96.298 7.43295 96.6337 7.43295C96.8744 7.43295 97.0687 7.43294 97.2189 7.4241C97.369 7.41969 97.5258 7.41086 97.6892 7.39982C97.8504 7.38878 98.0447 7.37994 98.2743 7.3689C98.2964 7.41086 98.3119 7.47268 98.3207 7.55659C98.3318 7.64051 98.3163 7.72221 98.2743 7.80834C98.2103 7.80834 98.0889 7.81938 97.9079 7.83925C97.7246 7.86134 97.5501 7.89445 97.3845 7.94082C97.2189 7.9872 97.1128 8.0424 97.0731 8.10423C97.0002 8.21906 96.9582 8.34935 96.9494 8.49509C96.9384 8.64084 96.934 8.85945 96.934 9.15314V16.129C96.934 16.3476 96.934 16.5596 96.9428 16.7627C96.9472 16.9659 96.956 17.2044 96.9671 17.4738C96.956 17.5157 96.9252 17.5422 96.8722 17.5533C96.8192 17.5643 96.7816 17.5687 96.7639 17.5687C96.722 17.5687 96.6535 17.5422 96.552 17.4892C96.4526 17.4362 96.3466 17.3435 96.2317 17.2066L89.5695 8.79541V15.7403C89.5695 16.0119 89.5784 16.2239 89.5939 16.3741C89.6093 16.5242 89.6534 16.6634 89.7263 16.7892C89.7572 16.8422 89.8478 16.8908 90.0002 16.9372C90.1503 16.9835 90.3115 17.0233 90.4859 17.0542C90.6581 17.0851 90.7862 17.1006 90.8679 17.1006C90.9099 17.1536 90.932 17.2243 90.932 17.3192C90.932 17.4142 90.921 17.4848 90.9011 17.5378C90.5986 17.5157 90.3181 17.4981 90.0554 17.4826C89.7948 17.4672 89.4989 17.4583 89.1632 17.4583C88.9336 17.4583 88.7371 17.4649 88.5781 17.4738C88.4169 17.4848 88.26 17.4937 88.1076 17.5047C87.9575 17.5157 87.761 17.5268 87.5225 17.5356C87.5004 17.4937 87.4849 17.4318 87.4761 17.3479C87.4651 17.264 87.4805 17.1823 87.5225 17.0962C87.5865 17.0962 87.7036 17.0829 87.8825 17.0564C88.0592 17.0299 88.2335 16.9924 88.4058 16.9482C88.578 16.9018 88.6797 16.8466 88.7106 16.7848C88.7835 16.6722 88.8275 16.5419 88.843 16.4028C88.8584 16.2637 88.8674 16.0472 88.8674 15.7536V9.12443C88.8674 8.83074 88.8584 8.61434 88.843 8.46638C88.8275 8.32064 88.7835 8.19035 88.7106 8.07552C88.6797 8.01148 88.578 7.95849 88.4058 7.91212C88.2335 7.86574 88.0592 7.83042 87.8825 7.81055C87.7058 7.79067 87.5843 7.77963 87.5225 7.77963C87.4805 7.69571 87.4651 7.61401 87.4761 7.52789C87.4871 7.44397 87.5026 7.38215 87.5225 7.34019C87.8758 7.35123 88.165 7.36449 88.3837 7.37995C88.6023 7.39541 88.8387 7.40424 89.0882 7.40424L89.0838 7.40866L89.0771 7.40424Z" fill="#004A55"/>
<path d="M100.836 7.45281C101.554 7.45281 102.349 7.43736 103.212 7.40645C104.078 7.37553 104.923 7.36006 105.745 7.36006C105.798 7.7465 105.864 8.09983 105.948 8.42444C106.032 8.74684 106.109 9.0825 106.182 9.42478C106.129 9.47778 106.043 9.50427 105.915 9.50427C105.78 9.50427 105.705 9.46673 105.696 9.39607C105.531 8.77997 105.294 8.3891 104.992 8.22348C104.689 8.05787 104.334 7.97174 103.927 7.97174H102.614C102.55 7.97174 102.437 7.97175 102.271 7.98058C102.106 7.985 101.949 7.99824 101.801 8.02032C101.655 8.0424 101.571 8.07776 101.549 8.12855C101.518 8.23233 101.498 8.36924 101.494 8.53485C101.49 8.70047 101.485 8.8727 101.485 9.04936V12.068C101.485 12.11 101.554 12.1365 101.688 12.1475C101.823 12.1586 101.975 12.163 102.143 12.163H102.94C103.305 12.163 103.59 12.1519 103.793 12.132C103.996 12.1122 104.144 12.0636 104.239 11.993C104.334 11.9201 104.404 11.8119 104.457 11.6661C104.51 11.5204 104.566 11.3216 104.63 11.0721C104.641 10.9992 104.714 10.9639 104.848 10.9639C104.972 10.9639 105.062 10.9904 105.115 11.0434V13.9207C105.073 13.9627 104.992 13.9848 104.864 13.9848C104.736 13.9848 104.661 13.9472 104.63 13.8766C104.557 13.5829 104.497 13.3731 104.451 13.2428C104.404 13.1125 104.36 13.0242 104.327 12.9756C104.29 12.9292 104.245 12.8895 104.195 12.8586C104.142 12.8166 104.022 12.7879 103.835 12.7724C103.647 12.757 103.442 12.7459 103.216 12.7415C102.991 12.7371 102.781 12.7327 102.583 12.7327C102.448 12.7327 102.293 12.7327 102.121 12.7415C101.949 12.7459 101.801 12.757 101.675 12.7724C101.551 12.7879 101.487 12.8232 101.487 12.874V15.8772C101.487 16.023 101.487 16.2107 101.496 16.4403C101.501 16.67 101.525 16.8003 101.567 16.8312C101.671 16.904 101.799 16.9482 101.949 16.9637C102.099 16.9791 102.338 16.988 102.66 16.988H103.393C103.757 16.988 104.117 16.9504 104.473 16.8797C104.826 16.8069 105.109 16.7031 105.319 16.5684C105.559 16.4227 105.747 16.2129 105.882 15.9346C106.016 15.6586 106.149 15.3583 106.273 15.0337C106.292 14.9696 106.367 14.9387 106.491 14.9387C106.679 14.9387 106.803 14.9696 106.867 15.0337C106.721 15.451 106.562 15.8949 106.39 16.3608C106.217 16.8312 106.105 17.2331 106.054 17.5643C105.23 17.5643 104.411 17.5533 103.598 17.5334C102.786 17.5113 101.869 17.5025 100.847 17.5025C100.494 17.5025 100.173 17.5113 99.893 17.5268C99.6103 17.5422 99.3211 17.5511 99.0164 17.5511C98.9744 17.5091 98.9545 17.4384 98.9612 17.3324C98.9656 17.2287 98.9854 17.1558 99.0164 17.1138C99.0804 17.1138 99.193 17.105 99.3586 17.0895C99.5242 17.0741 99.6832 17.0454 99.8356 17.0034C99.9858 16.9615 100.067 16.9151 100.079 16.8643C100.12 16.7406 100.145 16.5772 100.149 16.3785C100.154 16.1798 100.158 15.9678 100.158 15.7359V9.21498C100.158 8.98532 100.158 8.76893 100.149 8.56577C100.145 8.36261 100.12 8.19921 100.079 8.07334C100.067 8.0093 99.9858 7.96514 99.8356 7.93422C99.6854 7.9033 99.5264 7.879 99.3586 7.86354C99.193 7.84808 99.076 7.83925 99.0164 7.83925C98.9854 7.7973 98.9656 7.72443 98.9612 7.62064C98.9567 7.51685 98.9744 7.44398 99.0164 7.40203C99.3277 7.41307 99.6369 7.4263 99.9372 7.44176C100.24 7.45722 100.536 7.46608 100.829 7.46608V7.45281H100.836Z" fill="#004A55"/>
<path d="M113.235 10.2065C113.235 9.53959 113.056 8.99196 112.696 8.56356C112.336 8.13516 111.736 7.92096 110.89 7.92096C110.795 7.92096 110.652 7.92757 110.459 7.9364C110.267 7.94744 110.155 7.98941 110.124 8.06008C110.082 8.15503 110.058 8.31403 110.053 8.53706C110.049 8.7623 110.044 8.98753 110.044 9.21719L110.06 12.4059H110.872C111.268 12.4059 111.645 12.3131 112.005 12.132C112.365 11.951 112.659 11.6948 112.888 11.3658C113.118 11.039 113.231 10.6503 113.231 10.2021L113.235 10.2065ZM111.564 7.41968C111.906 7.41968 112.264 7.4771 112.628 7.59193C112.992 7.70676 113.33 7.87459 113.637 8.09321C113.944 8.31182 114.191 8.58564 114.379 8.91466C114.567 9.24148 114.662 9.6257 114.662 10.0629C114.662 10.4273 114.56 10.7806 114.357 11.1273C114.154 11.4718 113.893 11.7743 113.575 12.0349C113.257 12.2955 112.926 12.4832 112.582 12.598C112.853 13.0463 113.111 13.4592 113.363 13.8346C113.615 14.21 113.873 14.5832 114.145 14.952C114.417 15.3207 114.717 15.7315 115.053 16.1798C115.271 16.4735 115.51 16.6899 115.764 16.8378C116.02 16.9835 116.355 17.0719 116.773 17.105C116.815 17.1469 116.826 17.2242 116.804 17.3391C116.782 17.4539 116.766 17.5201 116.757 17.5422C116.247 17.5422 115.823 17.5246 115.483 17.487C115.143 17.4495 114.898 17.4053 114.741 17.3545C114.637 17.3126 114.489 17.2485 114.304 17.1602C114.116 17.0697 113.935 16.9129 113.756 16.6832C113.692 16.5993 113.58 16.4381 113.412 16.1974C113.246 15.9567 113.048 15.6674 112.818 15.3207C112.588 14.9785 112.343 14.6097 112.085 14.2166C111.824 13.8258 111.575 13.4438 111.334 13.0684C111.25 12.9447 111.093 12.8806 110.864 12.8806H110.066V15.9148C110.066 16.1135 110.066 16.2924 110.075 16.4536C110.08 16.6148 110.1 16.7495 110.13 16.8533C110.153 16.9062 110.234 16.9526 110.382 16.9924C110.53 17.0321 110.685 17.063 110.852 17.0785C111.018 17.094 111.135 17.1028 111.195 17.1028C111.226 17.1447 111.246 17.2176 111.25 17.3214C111.254 17.4252 111.237 17.4981 111.195 17.54C110.883 17.518 110.583 17.5003 110.294 17.4848C110.007 17.4694 109.713 17.4605 109.411 17.4605C109.108 17.4605 108.821 17.4694 108.518 17.4848C108.216 17.5003 107.909 17.518 107.598 17.54C107.556 17.4981 107.536 17.4274 107.542 17.3214C107.547 17.2176 107.567 17.1447 107.598 17.1028C107.662 17.1028 107.774 17.094 107.94 17.0785C108.105 17.063 108.264 17.0343 108.417 16.9924C108.569 16.9504 108.649 16.904 108.66 16.8533C108.702 16.7296 108.726 16.5662 108.73 16.3674C108.735 16.1687 108.739 15.9567 108.739 15.7248L108.724 9.20395C108.724 8.9743 108.724 8.75788 108.715 8.55472C108.711 8.35156 108.686 8.18816 108.644 8.06229C108.633 7.99825 108.552 7.95408 108.401 7.92317C108.251 7.89225 108.094 7.86797 107.931 7.85252C107.77 7.83706 107.657 7.8282 107.595 7.8282C107.564 7.78625 107.545 7.71338 107.54 7.60959C107.536 7.5058 107.553 7.43293 107.595 7.39098C107.907 7.40202 108.214 7.41528 108.51 7.43074C108.808 7.44619 109.101 7.45502 109.393 7.45502C109.684 7.45502 110.02 7.45059 110.369 7.43955C110.718 7.42851 111.115 7.4241 111.566 7.4241V7.41526L111.564 7.41968Z" fill="#004A55"/>
<path d="M119.977 7.32695C120.299 7.32695 120.569 7.34462 120.783 7.38216C120.997 7.4197 121.216 7.46826 121.441 7.53009C121.666 7.59192 121.944 7.66479 122.278 7.74871C122.342 8.14398 122.388 8.55473 122.426 8.9765C122.463 9.39827 122.486 9.71405 122.497 9.92163C122.508 9.97463 122.47 10.0144 122.388 10.0386C122.304 10.0651 122.238 10.0784 122.185 10.0784C122.112 10.0784 122.055 10.0563 122.013 10.0144C121.991 9.82666 121.929 9.60805 121.825 9.35631C121.721 9.10457 121.578 8.86608 121.395 8.63863C121.211 8.40898 120.993 8.21908 120.737 8.06892C120.48 7.91876 120.193 7.84146 119.869 7.84146C119.451 7.84146 119.125 7.93199 118.884 8.10865C118.643 8.28531 118.471 8.50392 118.369 8.7667C118.266 9.02727 118.213 9.28124 118.213 9.53298C118.213 9.93929 118.319 10.2771 118.533 10.5488C118.747 10.8204 119.019 11.0589 119.345 11.2664C119.672 11.4762 120.006 11.6882 120.339 11.909C120.591 12.0658 120.865 12.2358 121.167 12.4235C121.47 12.6112 121.761 12.8188 122.044 13.0485C122.326 13.2781 122.554 13.5409 122.733 13.839C122.909 14.1371 123 14.4728 123 14.8482C123 15.4002 122.848 15.8883 122.539 16.31C122.229 16.7318 121.834 17.0608 121.35 17.2949C120.867 17.529 120.352 17.646 119.811 17.646C119.301 17.646 118.809 17.5886 118.332 17.4738C117.857 17.3589 117.431 17.2662 117.058 17.1911C116.994 16.8886 116.941 16.5662 116.894 16.2217C116.848 15.8772 116.81 15.5747 116.786 15.3141C116.76 15.0535 116.746 14.8924 116.746 14.8283C116.799 14.7753 116.857 14.7312 116.925 14.6958C116.994 14.6583 117.062 14.6406 117.137 14.6406C117.232 14.6406 117.287 14.687 117.309 14.7797C117.34 14.9255 117.407 15.1264 117.504 15.3826C117.603 15.6387 117.749 15.9015 117.941 16.1731C118.133 16.4447 118.385 16.6722 118.692 16.8532C118.999 17.0365 119.383 17.1271 119.84 17.1271C120.33 17.1271 120.756 16.9637 121.123 16.6346C121.487 16.3078 121.671 15.8441 121.671 15.2501C121.671 14.8217 121.573 14.4905 121.381 14.2498C121.189 14.0091 120.938 13.8015 120.631 13.6248C120.324 13.4482 119.992 13.2605 119.637 13.0617C119.25 12.8321 118.853 12.5781 118.44 12.3043C118.027 12.0283 117.683 11.7015 117.4 11.3283C117.117 10.9529 116.978 10.509 116.978 10.0011C116.978 9.4601 117.122 8.98753 117.409 8.58564C117.696 8.18374 118.069 7.87459 118.526 7.65598C118.983 7.43736 119.469 7.32914 119.981 7.32914L119.977 7.32695Z" fill="#004A55"/>
<path d="M56.8678 21.8152C56.5322 21.8152 56.2429 21.8903 56.0044 22.0404C55.7659 22.1906 55.5716 22.3871 55.4215 22.6322C55.2713 22.8773 55.1609 23.1489 55.0924 23.4492C55.0239 23.7496 54.9886 24.0499 54.9886 24.3502C54.9886 24.6991 55.0372 25.048 55.1299 25.3925C55.2227 25.737 55.364 26.0528 55.5473 26.3376C55.7306 26.6225 55.9558 26.8499 56.223 27.0222C56.4902 27.1922 56.795 27.2805 57.1439 27.2805C57.4928 27.2805 57.7688 27.2055 58.0073 27.0553C58.2458 26.9051 58.4423 26.7064 58.5946 26.4547C58.747 26.2029 58.8597 25.9269 58.9281 25.6244C58.9988 25.3196 59.0319 25.0215 59.0319 24.719C59.0319 24.3701 58.9833 24.0234 58.8906 23.6811C58.7979 23.3388 58.6543 23.0253 58.4688 22.747C58.2833 22.4688 58.0558 22.2413 57.7886 22.0713C57.5214 21.9035 57.2167 21.8174 56.8678 21.8174V21.8152ZM56.9959 21.5149C57.3934 21.5149 57.7666 21.5899 58.1199 21.7357C58.471 21.8814 58.7823 22.0912 59.0495 22.365C59.3167 22.6388 59.5332 22.959 59.6877 23.3278C59.8423 23.6966 59.9218 24.1051 59.9218 24.5534C59.9218 24.9751 59.8423 25.3682 59.6877 25.7326C59.5332 26.0969 59.3189 26.4193 59.0495 26.6954C58.7801 26.9714 58.471 27.1922 58.1199 27.3468C57.7688 27.5014 57.3934 27.5809 56.9959 27.5809C56.5984 27.5809 56.2341 27.5058 55.883 27.36C55.5319 27.2143 55.2227 27.0045 54.9577 26.7307C54.6905 26.4569 54.4807 26.1367 54.3284 25.7679C54.176 25.3991 54.0987 24.9928 54.0987 24.5512C54.0987 24.1095 54.176 23.7341 54.3284 23.3675C54.4807 23.001 54.6905 22.6764 54.9577 22.4003C55.2249 22.1221 55.5319 21.9035 55.883 21.7489C56.2341 21.5943 56.6051 21.5149 56.9959 21.5149Z" fill="#004A55"/>
<path d="M61.5095 21.5944C61.9313 21.5944 62.3972 21.5855 62.9029 21.5656C63.4086 21.548 63.9054 21.5369 64.389 21.5369C64.42 21.7644 64.4597 21.9719 64.5083 22.1619C64.5569 22.3518 64.6032 22.5461 64.6451 22.7493C64.6142 22.7802 64.5613 22.7956 64.4906 22.7956C64.4111 22.7956 64.3691 22.7735 64.3625 22.7316C64.2631 22.3716 64.1262 22.142 63.9496 22.0426C63.7729 21.9432 63.5653 21.8969 63.3246 21.8969H62.554C62.5164 21.8969 62.4502 21.8969 62.353 21.9013C62.2536 21.9013 62.1631 21.9123 62.077 21.9234C61.9909 21.9366 61.9423 21.9565 61.9313 21.9874C61.9136 22.0492 61.9025 22.1265 61.8981 22.2259C61.8981 22.3253 61.8937 22.4246 61.8937 22.5306V24.3016C61.8937 24.3259 61.9334 24.3414 62.0129 24.348C62.0924 24.3546 62.1807 24.3569 62.2801 24.3569H62.7483C62.9625 24.3569 63.1281 24.3502 63.2496 24.3392C63.3688 24.3259 63.4549 24.2994 63.5123 24.2553C63.5675 24.2111 63.6117 24.1493 63.6404 24.0631C63.6713 23.977 63.7045 23.8622 63.742 23.7142C63.7486 23.6701 63.7906 23.6502 63.8701 23.6502C63.9452 23.6502 63.9938 23.6657 64.0247 23.6966V25.3859C64.0004 25.4102 63.9496 25.4234 63.8789 25.4234C63.8083 25.4234 63.7597 25.4013 63.742 25.3594C63.6978 25.1893 63.6626 25.0635 63.6383 24.9884C63.6096 24.9111 63.5852 24.8603 63.5631 24.8338C63.541 24.8051 63.5146 24.783 63.4836 24.7654C63.4527 24.7411 63.3821 24.7234 63.2717 24.7146C63.1635 24.7058 63.0398 24.6991 62.9095 24.6969C62.7792 24.6969 62.6534 24.6925 62.5386 24.6925C62.4591 24.6925 62.3685 24.6925 62.267 24.6969C62.1654 24.6969 62.0792 24.7058 62.0041 24.7146C61.929 24.7234 61.8959 24.7433 61.8959 24.7742V26.5629C61.8959 26.6777 61.8959 26.7859 61.9004 26.8786C61.9004 26.9736 61.9136 27.0509 61.9335 27.1127C61.9467 27.1436 62.0019 27.1723 62.1035 27.1966C62.2051 27.2209 62.3111 27.2386 62.4237 27.2474C62.5364 27.2563 62.6114 27.2607 62.649 27.2607C62.6666 27.2849 62.6777 27.3291 62.6821 27.3888C62.6821 27.4506 62.6733 27.4925 62.649 27.5168C62.4657 27.5036 62.2735 27.4947 62.077 27.4837C61.8782 27.4749 61.6906 27.4705 61.5139 27.4705C61.3063 27.4705 61.1208 27.4793 60.9596 27.4947C60.7984 27.5102 60.6284 27.5168 60.4517 27.5168C60.4275 27.4925 60.4164 27.4484 60.4186 27.3888C60.4209 27.3291 60.4319 27.2849 60.4517 27.2607C60.4893 27.2607 60.5556 27.2563 60.6527 27.2474C60.7521 27.2386 60.8448 27.2209 60.9332 27.1966C61.0237 27.1723 61.0678 27.1436 61.0744 27.1127C61.0987 27.0376 61.112 26.9449 61.1164 26.8279C61.1164 26.713 61.1208 26.585 61.1208 26.4525V22.6278C61.1208 22.4931 61.1208 22.365 61.1164 22.248C61.1164 22.1287 61.0987 22.0316 61.0744 21.9587C61.0678 21.9211 61.0193 21.8947 60.9332 21.8748C60.8426 21.8571 60.7521 21.8417 60.6527 21.8328C60.5534 21.824 60.4871 21.8196 60.4517 21.8196C60.4341 21.7953 60.4231 21.7511 60.4186 21.6915C60.4186 21.6297 60.4252 21.5877 60.4517 21.5634C60.635 21.5701 60.8161 21.5767 60.9928 21.5855C61.1695 21.5943 61.3439 21.5988 61.5139 21.5988V21.5944H61.5095Z" fill="#004A55"/>
<path d="M68.5184 21.5943C68.695 21.5943 68.8673 21.5899 69.0352 21.5811C69.203 21.5722 69.3796 21.5634 69.5629 21.559C69.5872 21.5833 69.5983 21.6275 69.5961 21.6871C69.5939 21.7467 69.5827 21.7909 69.5629 21.8152C69.5253 21.8152 69.4591 21.8196 69.362 21.8284C69.2626 21.8372 69.1721 21.8505 69.086 21.8704C68.9998 21.888 68.9512 21.9167 68.9402 21.9543C68.9225 22.0161 68.9115 22.0934 68.9071 22.1928C68.9071 22.2921 68.9027 22.3981 68.9027 22.513V26.5584C68.9027 26.6733 68.9027 26.7815 68.9071 26.8742C68.9071 26.9692 68.9203 27.0465 68.9402 27.1083C68.9534 27.1392 69.002 27.1679 69.086 27.1922C69.1721 27.2165 69.2626 27.2342 69.362 27.243C69.4614 27.2518 69.5275 27.2563 69.5629 27.2563C69.5805 27.2805 69.5917 27.3247 69.5961 27.3843C69.5961 27.4462 69.5872 27.4881 69.5629 27.5124C69.3796 27.4991 69.203 27.4903 69.0352 27.4793C68.8673 27.4704 68.695 27.466 68.5184 27.466C68.3417 27.466 68.1739 27.4704 67.9973 27.4793C67.8206 27.4881 67.6396 27.4991 67.4563 27.5124C67.432 27.4881 67.4209 27.4439 67.4231 27.3843C67.4253 27.3247 67.4364 27.2805 67.4563 27.2563C67.4938 27.2563 67.56 27.2518 67.6572 27.243C67.7566 27.2342 67.8493 27.2165 67.9376 27.1922C68.0282 27.1679 68.0724 27.1392 68.079 27.1083C68.1033 27.0332 68.1165 26.9405 68.1209 26.8234C68.1209 26.7086 68.1254 26.5805 68.1254 26.448V22.6234C68.1254 22.4887 68.1253 22.3606 68.1209 22.2436C68.1209 22.1243 68.1033 22.0272 68.079 21.9543C68.0724 21.9167 68.0238 21.8902 67.9376 21.8704C67.8471 21.8527 67.7566 21.8372 67.6572 21.8284C67.5578 21.8196 67.4916 21.8152 67.4563 21.8152C67.4386 21.7909 67.4275 21.7467 67.4231 21.6871C67.4231 21.6252 67.4298 21.5833 67.4563 21.559C67.6396 21.5656 67.8206 21.5722 67.9973 21.5811C68.1739 21.5899 68.3483 21.5943 68.5184 21.5943Z" fill="#004A55"/>
<path d="M71.5724 26.448V26.7197C71.5724 26.8102 71.5724 26.8897 71.5812 26.9626C71.5878 27.0376 71.5988 27.0774 71.6187 27.0906C71.6806 27.1348 71.7534 27.1591 71.844 27.1701C71.9345 27.179 72.0714 27.1834 72.2614 27.1834H72.767C72.9371 27.1834 73.1247 27.1635 73.3301 27.1237C73.5355 27.084 73.6989 27.0222 73.8225 26.9361C73.9307 26.8566 74.0346 26.7461 74.1295 26.607C74.2245 26.4679 74.3084 26.278 74.3813 26.0395C74.3945 26.002 74.4365 25.9843 74.5094 25.9843C74.6176 25.9843 74.6927 26.002 74.7302 26.0395C74.6441 26.2846 74.5513 26.5452 74.4497 26.819C74.3482 27.0928 74.2841 27.3291 74.2532 27.5257C73.7696 27.5257 73.2904 27.519 72.8134 27.508C72.3364 27.4947 71.7976 27.4903 71.1992 27.4903C70.9916 27.4903 70.804 27.4948 70.6405 27.5036C70.4749 27.5124 70.3048 27.5168 70.1282 27.5168C70.1039 27.4925 70.0929 27.4484 70.0951 27.3888C70.0973 27.3291 70.1083 27.2849 70.1282 27.2607C70.1657 27.2607 70.232 27.2563 70.3291 27.2474C70.4285 27.2386 70.5213 27.2209 70.6096 27.1966C70.7001 27.1723 70.7443 27.1436 70.751 27.1127C70.7752 27.0376 70.7885 26.9449 70.7929 26.8279C70.7929 26.713 70.7973 26.585 70.7973 26.4525V22.6278C70.7973 22.4931 70.7973 22.365 70.7929 22.248C70.7929 22.1287 70.7752 22.0316 70.751 21.9587C70.7443 21.9211 70.6957 21.8947 70.6096 21.8748C70.5191 21.8571 70.4285 21.8417 70.3291 21.8328C70.2298 21.824 70.1635 21.8196 70.1282 21.8196C70.1105 21.7953 70.0995 21.7511 70.0951 21.6915C70.0951 21.6297 70.1017 21.5877 70.1282 21.5634C70.3114 21.5701 70.4926 21.5767 70.6692 21.5855C70.8459 21.5943 71.0203 21.5988 71.1903 21.5988C71.3604 21.5988 71.5393 21.5943 71.7071 21.5855C71.875 21.5767 72.0515 21.5678 72.2348 21.5634C72.2591 21.5877 72.2701 21.6319 72.2679 21.6915C72.2657 21.7511 72.2547 21.7953 72.2348 21.8196C72.1973 21.8196 72.1311 21.824 72.034 21.8328C71.9346 21.8417 71.844 21.8549 71.7579 21.8748C71.6718 21.8925 71.6232 21.9211 71.6121 21.9587C71.5945 22.0205 71.5835 22.0978 71.579 22.1972C71.579 22.2966 71.5746 22.4025 71.5746 22.5174V26.4547L71.5702 26.4503L71.5724 26.448Z" fill="#004A55"/>
<path d="M76.3886 26.448V26.7197C76.3886 26.8102 76.3886 26.8897 76.3974 26.9626C76.404 27.0376 76.415 27.0774 76.4349 27.0906C76.4967 27.1348 76.5696 27.1591 76.6602 27.1701C76.7507 27.179 76.8876 27.1834 77.0775 27.1834H77.5832C77.7533 27.1834 77.9409 27.1635 78.1463 27.1237C78.3517 27.084 78.5151 27.0222 78.6387 26.9361C78.7469 26.8566 78.8507 26.7461 78.9457 26.607C79.0407 26.4679 79.1246 26.278 79.1975 26.0395C79.2107 26.002 79.2527 25.9843 79.3256 25.9843C79.4338 25.9843 79.5089 26.002 79.5464 26.0395C79.4603 26.2846 79.3675 26.5452 79.2659 26.819C79.1644 27.095 79.1003 27.3291 79.0694 27.5257C78.5858 27.5257 78.1066 27.519 77.6296 27.508C77.1526 27.4947 76.6138 27.4903 76.0154 27.4903C75.8078 27.4903 75.6201 27.4948 75.4567 27.5036C75.2911 27.5124 75.121 27.5168 74.9444 27.5168C74.9201 27.4925 74.909 27.4484 74.9113 27.3888C74.9135 27.3291 74.9245 27.2849 74.9444 27.2607C74.9819 27.2607 75.0482 27.2563 75.1453 27.2474C75.2447 27.2386 75.3375 27.2209 75.4258 27.1966C75.5163 27.1723 75.5605 27.1436 75.5671 27.1127C75.5914 27.0376 75.6047 26.9449 75.6091 26.8279C75.6091 26.713 75.6135 26.585 75.6135 26.4525V22.6278C75.6135 22.4931 75.6135 22.365 75.6091 22.248C75.6091 22.1287 75.5914 22.0316 75.5671 21.9587C75.5605 21.9211 75.5119 21.8947 75.4258 21.8748C75.3353 21.8571 75.2447 21.8417 75.1453 21.8328C75.046 21.824 74.9797 21.8196 74.9444 21.8196C74.9267 21.7953 74.9157 21.7511 74.9113 21.6915C74.9113 21.6297 74.9179 21.5877 74.9444 21.5634C75.1276 21.5701 75.3088 21.5767 75.4854 21.5855C75.6621 21.5943 75.8365 21.5988 76.0065 21.5988C76.1766 21.5988 76.3554 21.5943 76.5232 21.5855C76.691 21.5767 76.8677 21.5678 77.051 21.5634C77.0753 21.5877 77.0863 21.6319 77.0841 21.6915C77.0819 21.7511 77.0709 21.7953 77.051 21.8196C77.0135 21.8196 76.9472 21.824 76.85 21.8328C76.7507 21.8417 76.6601 21.8549 76.574 21.8748C76.4879 21.8925 76.4394 21.9211 76.4283 21.9587C76.4107 22.0205 76.3997 22.0978 76.3952 22.1972C76.3952 22.2966 76.3908 22.4025 76.3908 22.5174V26.4547L76.3864 26.4503L76.3886 26.448Z" fill="#004A55"/>
<path d="M80.8204 21.5943C80.9971 21.5943 81.1694 21.5899 81.3372 21.5811C81.5051 21.5722 81.6817 21.5634 81.865 21.559C81.8893 21.5833 81.9003 21.6275 81.8981 21.6871C81.8959 21.7467 81.8849 21.7909 81.865 21.8152C81.8275 21.8152 81.7612 21.8196 81.664 21.8284C81.5647 21.8372 81.4741 21.8505 81.388 21.8704C81.3019 21.888 81.2533 21.9167 81.2422 21.9543C81.2246 22.0161 81.2136 22.0934 81.2091 22.1928C81.2091 22.2921 81.2047 22.3981 81.2047 22.513V26.5584C81.2047 26.6733 81.2047 26.7815 81.2091 26.8742C81.2091 26.9692 81.2224 27.0465 81.2422 27.1083C81.2555 27.1392 81.3041 27.1679 81.388 27.1922C81.4741 27.2165 81.5647 27.2342 81.664 27.243C81.7634 27.2518 81.8297 27.2563 81.865 27.2563C81.8827 27.2805 81.8937 27.3247 81.8981 27.3843C81.8981 27.4462 81.8893 27.4881 81.865 27.5124C81.6817 27.4991 81.5051 27.4903 81.3372 27.4793C81.1694 27.4704 80.9971 27.466 80.8204 27.466C80.6438 27.466 80.476 27.4704 80.2993 27.4793C80.1227 27.4881 79.9417 27.4991 79.7584 27.5124C79.7341 27.4881 79.723 27.4439 79.7252 27.3843C79.7274 27.3247 79.7385 27.2805 79.7584 27.2563C79.7959 27.2563 79.8621 27.2518 79.9592 27.243C80.0586 27.2342 80.1514 27.2165 80.2397 27.1922C80.3302 27.1679 80.3744 27.1392 80.3811 27.1083C80.4053 27.0332 80.4186 26.9405 80.423 26.8234C80.423 26.7086 80.4274 26.5805 80.4274 26.448V22.6234C80.4274 22.4887 80.4274 22.3606 80.423 22.2436C80.423 22.1243 80.4053 22.0272 80.3811 21.9543C80.3744 21.9167 80.3258 21.8902 80.2397 21.8704C80.1492 21.8527 80.0586 21.8372 79.9592 21.8284C79.8599 21.8196 79.7937 21.8152 79.7584 21.8152C79.7407 21.7909 79.7296 21.7467 79.7252 21.6871C79.7252 21.6252 79.7319 21.5833 79.7584 21.559C79.9417 21.5656 80.1227 21.5722 80.2993 21.5811C80.476 21.5899 80.6504 21.5943 80.8204 21.5943Z" fill="#004A55"/>
<path d="M83.307 21.5679H83.7023C83.8303 21.5679 83.9253 21.5678 83.9871 21.559C84.0799 21.6981 84.2256 21.8969 84.4288 22.1552C84.6297 22.4136 84.8659 22.7029 85.1353 23.0319C85.4047 23.3609 85.683 23.6966 85.9701 24.0455C86.2594 24.3944 86.5354 24.7389 86.8048 25.0767C87.0742 25.4146 87.3083 25.7237 87.5026 25.9976V22.6035C87.5026 22.4445 87.5026 22.3186 87.4938 22.2281C87.4849 22.1376 87.4607 22.0537 87.4099 21.9808C87.3922 21.9499 87.3348 21.9212 87.2443 21.8925C87.1515 21.8637 87.0566 21.8439 86.955 21.8284C86.8534 21.813 86.7783 21.8041 86.7297 21.8041C86.7054 21.7732 86.6944 21.729 86.6966 21.6716C86.6988 21.6142 86.7033 21.5722 86.7099 21.548C86.8866 21.5546 87.0544 21.5612 87.2112 21.5701C87.368 21.5789 87.5423 21.5833 87.7389 21.5833C87.878 21.5833 87.995 21.5833 88.0834 21.5789C88.1739 21.5789 88.2644 21.5723 88.3594 21.5656C88.4543 21.559 88.5692 21.5524 88.7039 21.548C88.7171 21.5722 88.7259 21.6098 88.7326 21.6562C88.7392 21.7047 88.7326 21.7555 88.7039 21.8019C88.6663 21.8019 88.5957 21.8086 88.4875 21.8196C88.3815 21.8328 88.2777 21.8527 88.1805 21.8792C88.0811 21.9079 88.0215 21.9388 87.9972 21.9764C87.953 22.0448 87.9288 22.1199 87.9222 22.206C87.9155 22.2922 87.9133 22.4202 87.9133 22.5903V26.6821C87.9133 26.8102 87.9133 26.9361 87.9177 27.0531C87.9222 27.1701 87.9266 27.3115 87.931 27.4705C87.9244 27.4947 87.9067 27.5102 87.8758 27.5168C87.8449 27.5234 87.8228 27.5257 87.8117 27.5257C87.7875 27.5257 87.7455 27.5102 87.6881 27.4793C87.6307 27.4484 87.5688 27.3931 87.5004 27.3137L83.5918 22.376V26.4503C83.5918 26.6092 83.5963 26.7351 83.6051 26.8212C83.6139 26.9118 83.6404 26.9913 83.6846 27.0641C83.7022 27.0951 83.7575 27.1237 83.8436 27.1525C83.9342 27.1812 84.0269 27.2033 84.1285 27.2231C84.2301 27.2408 84.3028 27.2518 84.3536 27.2518C84.3779 27.2828 84.3913 27.3269 84.3913 27.3799C84.3913 27.4329 84.3846 27.4793 84.3736 27.508C84.1969 27.4947 84.0313 27.4859 83.8767 27.4749C83.7243 27.466 83.5499 27.4616 83.3556 27.4616C83.2209 27.4616 83.106 27.4616 83.0133 27.4705C82.9205 27.4793 82.8278 27.4837 82.7372 27.4881C82.6467 27.4947 82.5341 27.5014 82.395 27.5058C82.3818 27.4815 82.3728 27.4439 82.3662 27.3976C82.3596 27.349 82.3663 27.2982 82.395 27.2518C82.4325 27.2518 82.501 27.243 82.607 27.2276C82.7108 27.2121 82.8124 27.19 82.914 27.1635C83.0155 27.1348 83.0729 27.1039 83.0927 27.0663C83.1369 26.9979 83.1613 26.925 83.1723 26.8411C83.1833 26.7572 83.1856 26.6313 83.1856 26.4613V22.5704C83.1856 22.4003 83.1811 22.2701 83.1723 22.1861C83.1635 22.1 83.1369 22.025 83.0927 21.9565C83.0751 21.919 83.0133 21.888 82.914 21.8593C82.8124 21.8306 82.7108 21.8107 82.607 21.7997C82.5032 21.7865 82.4325 21.782 82.395 21.782C82.3707 21.7335 82.3618 21.6827 82.3662 21.6363C82.3728 21.5877 82.3818 21.5502 82.395 21.5281C82.6026 21.5347 82.7704 21.5413 82.9007 21.5502C83.0288 21.559 83.1678 21.5634 83.3136 21.5634V21.5679H83.307Z" fill="#004A55"/>
<path d="M91.8573 21.8152C91.5217 21.8152 91.2324 21.8903 90.9939 22.0404C90.7554 22.1906 90.561 22.3871 90.4109 22.6322C90.2607 22.8773 90.1504 23.1489 90.0819 23.4492C90.0112 23.7496 89.9781 24.0499 89.9781 24.3502C89.9781 24.6991 90.0267 25.048 90.1194 25.3925C90.2122 25.737 90.3534 26.0528 90.5367 26.3376C90.72 26.6225 90.9452 26.8499 91.2124 27.0222C91.4796 27.1922 91.7845 27.2805 92.1334 27.2805C92.4823 27.2805 92.7582 27.2055 92.9967 27.0553C93.2352 26.9051 93.4318 26.7064 93.5841 26.4547C93.7365 26.2029 93.8491 25.9269 93.9175 25.6244C93.9882 25.3196 94.0214 25.0215 94.0214 24.719C94.0214 24.3701 93.9727 24.0234 93.88 23.6811C93.7873 23.3388 93.6438 23.0253 93.4583 22.747C93.2728 22.4688 93.0453 22.2413 92.7781 22.0713C92.5109 21.9035 92.2062 21.8174 91.8573 21.8174V21.8152ZM91.9853 21.5149C92.3828 21.5149 92.7561 21.5899 93.1094 21.7357C93.4605 21.8814 93.7718 22.0912 94.039 22.365C94.3062 22.6388 94.5226 22.959 94.6771 23.3278C94.8317 23.6966 94.9112 24.1051 94.9112 24.5534C94.9112 24.9751 94.8317 25.3682 94.6771 25.7326C94.5226 26.0969 94.3084 26.4193 94.039 26.6954C93.7696 26.9714 93.4605 27.1922 93.1094 27.3468C92.7583 27.5014 92.3828 27.5809 91.9853 27.5809C91.5878 27.5809 91.2235 27.5058 90.8724 27.36C90.5212 27.2143 90.2121 27.0045 89.9471 26.7307C89.6799 26.4569 89.4702 26.1367 89.3179 25.7679C89.1655 25.3991 89.0882 24.9928 89.0882 24.5512C89.0882 24.1095 89.1655 23.7341 89.3179 23.3675C89.4702 23.001 89.6799 22.6764 89.9471 22.4003C90.2143 22.1221 90.5212 21.9035 90.8724 21.7489C91.2235 21.5943 91.5945 21.5149 91.9853 21.5149Z" fill="#004A55"/>
<path d="M96.5012 21.5943C96.6778 21.5943 96.85 21.5899 97.0179 21.5811C97.1857 21.5722 97.3624 21.5634 97.5457 21.559C97.5699 21.5833 97.581 21.6275 97.5788 21.6871C97.5765 21.7467 97.5655 21.7909 97.5457 21.8152C97.5081 21.8152 97.4418 21.8196 97.3447 21.8284C97.2453 21.8372 97.1548 21.8505 97.0686 21.8704C96.9825 21.888 96.934 21.9167 96.923 21.9543C96.9053 22.0161 96.8942 22.0934 96.8898 22.1928C96.8898 22.2921 96.8853 22.3981 96.8853 22.513V26.5584C96.8853 26.6733 96.8853 26.7815 96.8898 26.8742C96.8898 26.9692 96.9031 27.0465 96.923 27.1083C96.9362 27.1392 96.9847 27.1679 97.0686 27.1922C97.1548 27.2165 97.2453 27.2342 97.3447 27.243C97.444 27.2518 97.5103 27.2563 97.5457 27.2563C97.5633 27.2805 97.5743 27.3247 97.5788 27.3843C97.5788 27.4462 97.5699 27.4881 97.5457 27.5124C97.3624 27.4991 97.1857 27.4903 97.0179 27.4793C96.85 27.4704 96.6778 27.466 96.5012 27.466C96.3245 27.466 96.1567 27.4704 95.98 27.4793C95.8034 27.4881 95.6223 27.4991 95.439 27.5124C95.4147 27.4881 95.4037 27.4439 95.4059 27.3843C95.4081 27.3247 95.4191 27.2805 95.439 27.2563C95.4765 27.2563 95.5428 27.2518 95.64 27.243C95.7393 27.2342 95.8321 27.2165 95.9204 27.1922C96.011 27.1679 96.055 27.1392 96.0617 27.1083C96.086 27.0332 96.0993 26.9405 96.1037 26.8234C96.1037 26.7086 96.1081 26.5805 96.1081 26.448V22.6234C96.1081 22.4887 96.1081 22.3606 96.1037 22.2436C96.1037 22.1243 96.086 22.0272 96.0617 21.9543C96.055 21.9167 96.0065 21.8902 95.9204 21.8704C95.8299 21.8527 95.7393 21.8372 95.64 21.8284C95.5406 21.8196 95.4743 21.8152 95.439 21.8152C95.4213 21.7909 95.4103 21.7467 95.4059 21.6871C95.4059 21.6252 95.4125 21.5833 95.439 21.559C95.6223 21.5656 95.8034 21.5722 95.98 21.5811C96.1567 21.5899 96.3311 21.5943 96.5012 21.5943Z" fill="#004A55"/>
<path d="M100.041 21.5237C100.231 21.5237 100.388 21.5347 100.514 21.5568C100.637 21.5789 100.768 21.6076 100.898 21.6451C101.028 21.6827 101.194 21.7246 101.39 21.7732C101.428 22.0051 101.456 22.2458 101.479 22.4931C101.501 22.7404 101.514 22.9259 101.521 23.0474C101.527 23.0783 101.505 23.1025 101.456 23.118C101.408 23.1335 101.366 23.1401 101.337 23.1401C101.293 23.1401 101.26 23.1268 101.236 23.1026C101.222 22.9944 101.187 22.8641 101.128 22.7183C101.068 22.5726 100.982 22.429 100.876 22.2965C100.77 22.1618 100.639 22.0492 100.491 21.9631C100.341 21.8726 100.174 21.8306 99.9836 21.8306C99.7385 21.8306 99.5463 21.8836 99.405 21.9852C99.2659 22.089 99.1621 22.2171 99.1003 22.3694C99.0385 22.5218 99.0076 22.6742 99.0076 22.8199C99.0076 23.0584 99.0716 23.2571 99.1953 23.4161C99.319 23.5751 99.4801 23.7164 99.6722 23.8379C99.8643 23.9593 100.059 24.0852 100.255 24.2133C100.401 24.3061 100.562 24.4054 100.743 24.518C100.92 24.6262 101.092 24.7499 101.255 24.8846C101.419 25.0193 101.556 25.1739 101.66 25.3483C101.763 25.5228 101.814 25.7193 101.814 25.9401C101.814 26.2625 101.724 26.5496 101.543 26.7991C101.362 27.0465 101.13 27.2408 100.845 27.3777C100.56 27.5146 100.26 27.5853 99.9394 27.5853C99.6391 27.5853 99.3499 27.5521 99.0716 27.4837C98.7934 27.4152 98.5438 27.3622 98.3252 27.3181C98.2876 27.1414 98.2567 26.9515 98.228 26.7506C98.1993 26.5496 98.1794 26.3707 98.164 26.2184C98.1485 26.066 98.142 25.971 98.142 25.9335C98.1729 25.9026 98.2082 25.8761 98.2457 25.854C98.2854 25.8319 98.3274 25.8209 98.3694 25.8209C98.4246 25.8209 98.4599 25.8496 98.4709 25.9048C98.4886 25.9909 98.5284 26.108 98.5858 26.2581C98.6432 26.4083 98.7293 26.5629 98.8441 26.7219C98.9567 26.8808 99.1047 27.0155 99.2858 27.1215C99.4668 27.2275 99.6899 27.2828 99.9615 27.2828C100.251 27.2828 100.498 27.1856 100.712 26.9935C100.926 26.8013 101.033 26.5298 101.033 26.1809C101.033 25.9291 100.975 25.7348 100.862 25.5935C100.75 25.4543 100.602 25.3307 100.421 25.2269C100.24 25.1231 100.045 25.0127 99.8378 24.8979C99.6104 24.7632 99.3764 24.6152 99.1357 24.4518C98.8928 24.2906 98.6896 24.0985 98.5261 23.8799C98.3605 23.659 98.2788 23.3985 98.2788 23.1003C98.2788 22.7824 98.3627 22.5063 98.5306 22.2701C98.6984 22.0338 98.9171 21.8527 99.1865 21.7246C99.4559 21.5965 99.7384 21.5325 100.041 21.5325L100.037 21.5259L100.041 21.5237Z" fill="#004A55"/>
<path d="M49.5453 23.8423H34.8584V24.9354H49.5453V23.8423Z" fill="#D35027"/>
<path d="M120.964 23.8423H106.277V24.9354H120.964V23.8423Z" fill="#D35027"/>
</svg>
